<?xml version="1.0" encoding="utf-8"?>
<!DOCTYPE svg PUBLIC "-//W3C//DTD SVG 1.1//EN" "http://www.w3.org/Graphics/SVG/1.1/DTD/svg11.dtd">
<svg version="1.1" id="Capa_1" xmlns="http://www.w3.org/2000/svg" xmlns:xlink="http://www.w3.org/1999/xlink" x="0px" y="0px"
	 width="1000px" height="1000px" viewBox="0 91.875 1000 1000" enable-background="new 0 91.875 1000 1000" xml:space="preserve">
<g>
	<g id="comarruga_x5F_base">
		<polygon fill="#1A171B" points="168.564,943.139 194.853,1004.128 168.564,1065.107 831.436,1065.107 805.143,1004.128 
			831.436,943.139 		"/>
		<path fill="#FFFFFF" d="M237.084,1005.783c0-15.842,12.093-27.406,28.4-27.406c8.264,0,15.46,2.831,20.364,8.344l-4.978,4.823
			c-4.137-4.359-9.187-6.357-15.088-6.357c-12.095,0-21.045,8.731-21.045,20.595c0,11.86,8.952,20.597,21.045,20.597
			c5.901,0,10.952-2.067,15.088-6.439l4.978,4.831c-4.904,5.514-12.1,8.413-20.445,8.413
			C249.177,1033.184,237.084,1021.636,237.084,1005.783"/>
		<path fill="#FFFFFF" d="M341.666,1005.783c0-11.863-8.885-20.595-20.751-20.595c-12.016,0-20.89,8.731-20.89,20.595
			c0,11.859,8.875,20.596,20.89,20.596C332.781,1026.379,341.666,1017.643,341.666,1005.783 M292.363,1005.783
			c0-15.696,12.089-27.406,28.552-27.406c16.313,0,28.402,11.638,28.402,27.406s-12.089,27.399-28.402,27.399
			C304.452,1033.184,292.363,1021.483,292.363,1005.783"/>
		<polygon fill="#FFFFFF" points="410.568,1032.576 410.495,993.535 391.119,1026.066 387.608,1026.066 368.232,993.761 
			368.232,1032.576 360.892,1032.576 360.892,978.991 367.165,978.991 389.514,1016.653 411.564,978.991 417.845,978.991 
			417.916,1032.576 		"/>
		<path fill="#FFFFFF" d="M465.394,1013.058L453.837,986.8l-11.565,26.258H465.394z M468.073,1019.18h-28.483l-5.892,13.402h-7.882
			l24.27-53.598h7.569l24.354,53.598h-8.035L468.073,1019.18z"/>
		<path fill="#FFFFFF" d="M525.412,997.672c0-7.659-5.13-12.021-14.928-12.021h-13.005v24.12h13.005
			C520.283,1009.771,525.412,1005.318,525.412,997.672 M525.648,1032.576l-11.558-16.466c-1.071,0.088-2.226,0.165-3.374,0.165
			h-13.234v16.301h-7.663v-53.585h20.897c13.932,0,22.349,7.039,22.349,18.681c0,8.259-4.282,14.233-11.782,16.918l12.707,17.986
			H525.648L525.648,1032.576z"/>
		<path fill="#FFFFFF" d="M581.008,997.672c0-7.659-5.131-12.021-14.934-12.021h-13.008v24.12h13.008
			C575.877,1009.771,581.008,1005.318,581.008,997.672 M581.232,1032.576l-11.557-16.466c-1.068,0.088-2.221,0.165-3.365,0.165
			h-13.244v16.301h-7.658v-53.585h20.9c13.928,0,22.352,7.039,22.352,18.681c0,8.259-4.289,14.233-11.793,16.918l12.711,17.986
			H581.232L581.232,1032.576z"/>
		<path fill="#FFFFFF" d="M600.455,1009.453v-30.465h7.652v30.17c0,11.855,5.438,17.215,15.088,17.215
			c9.643,0,15.156-5.359,15.156-17.215v-30.17h7.426v30.465c0,15.541-8.502,23.743-22.664,23.743
			C609.027,1033.193,600.455,1024.994,600.455,1009.453"/>
		<path fill="#FFFFFF" d="M698.529,1005.478h7.348v20.895c-5.354,4.525-12.783,6.811-20.295,6.811
			c-16.449,0-28.547-11.547-28.547-27.395c0-15.85,12.1-27.409,28.713-27.409c8.494,0,15.686,2.841,20.588,8.256l-4.748,4.762
			c-4.436-4.288-9.484-6.206-15.541-6.206c-12.395,0-21.355,8.646-21.355,20.598c0,11.782,8.961,20.583,21.287,20.583
			c4.512,0,8.725-0.99,12.551-3.438V1005.478z"/>
		<path fill="#FFFFFF" d="M751.893,1013.058L740.334,986.8l-11.557,26.258H751.893z M754.572,1019.18h-28.471l-5.91,13.402h-7.881
			l24.27-53.598h7.576l24.344,53.598h-8.037L754.572,1019.18z"/>
	</g>
	<g id="logo_x5F_centro">
		<path fill="#1A171B" d="M197.324,930.359C95.89,842.426,37.714,715.062,37.714,580.926c0-254.903,207.38-462.283,462.284-462.283
			c254.908,0,462.287,207.38,462.287,462.283c0,134.133-58.176,261.496-159.602,349.434l-6.598-7.611
			c99.219-86.022,156.127-210.612,156.127-341.822c0-249.349-202.861-452.21-452.214-452.21
			c-249.349,0-452.211,202.861-452.211,452.21c0,131.214,56.909,255.804,156.134,341.822L197.324,930.359z"/>
		<path fill="#009944" d="M234.019,926.551H765.98c103.18-79.812,169.648-204.93,169.648-345.616
			c0-241.03-195.039-436.423-435.63-436.423c-240.589,0-435.633,195.392-435.633,436.423
			C64.367,721.621,130.845,846.739,234.019,926.551"/>
		<g>
			<polygon fill="#FFFFFF" points="195.595,767.063 224.196,767.063 224.196,890.021 245.275,890.021 245.275,767.063 
				273.866,767.063 273.866,749.401 195.595,749.401 			"/>
			<polygon fill="#FFFFFF" points="285.611,890.023 353.243,890.023 353.243,872.362 306.681,872.362 306.681,827.468 
				344.589,827.468 344.589,810.002 306.681,810.002 306.681,767.06 353.243,767.06 353.243,749.401 285.611,749.401 			"/>
			<path fill="#FFFFFF" d="M463.939,824.981c-3.894-3.69-8.186-7.14-12.763-10.263c-4.43-3.001-8.595-6.119-12.382-9.267
				c-3.691-3.067-6.819-6.457-9.295-10.074c-2.389-3.493-3.549-7.49-3.549-12.222c0-5.638,1.273-10.033,3.782-13.061
				c2.424-2.924,6.483-4.407,12.064-4.407c5.585,0,9.644,1.483,12.066,4.405c2.506,3.029,3.779,7.493,3.779,13.26v6.388h20.183
				v-5.609c0-10.869-3-19.685-8.919-26.195c-5.964-6.574-15.233-9.904-27.548-9.904c-12.179,0-21.374,3.296-27.333,9.8
				c-5.922,6.455-8.928,15.308-8.928,26.3c0,6.685,1.388,12.551,4.121,17.44c2.671,4.774,6.035,9.104,9.999,12.866
				c3.884,3.688,8.136,7.137,12.63,10.251c4.343,3.001,8.475,6.124,12.289,9.287c3.709,3.075,6.834,6.434,9.294,9.983
				c2.353,3.371,3.547,7.445,3.547,12.112c0,5.765-1.334,10.216-3.965,13.228c-2.572,2.94-6.716,4.432-12.319,4.432
				c-5.688,0-9.721-1.449-12.323-4.432c-2.634-3.021-3.969-7.474-3.969-13.228v-10.49h-19.962v9.705
				c0,10.873,2.999,19.686,8.912,26.195c5.956,6.576,15.301,9.906,27.781,9.906c12.476,0,21.86-3.329,27.889-9.898
				c5.992-6.522,9.03-15.341,9.03-26.203c0-6.701-1.387-12.568-4.118-17.434C471.276,833.099,467.919,828.769,463.939,824.981z"/>
			<rect x="492.891" y="749.401" fill="#FFFFFF" width="21.08" height="140.625"/>
			<path fill="#FFFFFF" d="M605.064,880.217c-0.283-2.725-0.43-5.582-0.43-8.501v-21.314c0-7.738-1.586-14.283-4.701-19.452
				c-2.416-3.976-6.086-7.037-10.959-9.14c4.496-2.046,8.006-4.951,10.473-8.678c3.295-4.986,4.969-11.523,4.969-19.423V782.57
				c0-10.63-2.91-18.908-8.656-24.604c-5.736-5.684-15.096-8.564-27.82-8.564h-36.473v140.625h21.066v-58.448h10.311
				c6.787,0,12.035,1.353,15.605,4.02c3.4,2.54,5.121,7.388,5.121,14.414v21.505c0,4.762,0.223,8.238,0.688,10.633
				c0.484,2.467,1.297,4.778,2.404,6.872l0.537,1.005h22.086l-1.828-2.901C606.119,885.01,605.336,882.747,605.064,880.217z
				 M552.533,767.065h14.959c5.902,0,10.092,1.361,12.436,4.038c2.416,2.771,3.641,7.093,3.641,12.837v13.098
				c0,6.719-1.656,11.219-4.92,13.374c-3.512,2.321-8.607,3.496-15.146,3.496h-10.969V767.065L552.533,767.065z"/>
			<polygon fill="#FFFFFF" points="662.156,861.191 638.42,749.401 617.035,749.401 647.111,890.023 675.67,890.023 
				705.508,749.401 685.686,749.401 			"/>
			<path fill="#FFFFFF" d="M782.135,757.896c-6.256-6.549-15.74-9.868-28.188-9.868s-21.896,3.322-28.096,9.88
				c-6.15,6.526-9.266,15.417-9.266,26.422v70.761c0,10.875,3.115,19.73,9.262,26.319c6.189,6.621,15.645,9.976,28.1,9.976
				c12.459,0,21.943-3.352,28.193-9.968c6.232-6.592,9.393-15.448,9.393-26.327V784.33
				C791.531,773.322,788.369,764.429,782.135,757.896z M737.432,783.552c0-5.75,1.375-10.229,4.086-13.323
				c2.627-3.005,6.809-4.53,12.43-4.53c5.748,0,9.969,1.521,12.535,4.51c2.641,3.104,3.984,7.594,3.984,13.344v72.329
				c0,5.751-1.336,10.233-3.984,13.326c-2.566,3.002-6.787,4.524-12.535,4.524c-5.621,0-9.803-1.526-12.438-4.541
				c-2.701-3.081-4.074-7.559-4.074-13.31v-72.329H737.432z"/>
			<polygon fill="#FFFFFF" points="219.488,723.335 237.586,723.335 237.586,621.582 261.245,621.582 261.245,606.305 
				195.824,606.305 195.824,621.582 219.488,621.582 			"/>
			<path fill="#FFFFFF" d="M323.527,716.143c4.939-5.564,7.442-12.979,7.442-22.036v-87.792h-17.172v88.438
				c0,4.692-1.057,8.338-3.146,10.835c-2.026,2.434-5.239,3.615-9.826,3.615c-4.651,0-8.018-1.217-10.015-3.62
				c-2.083-2.479-3.14-6.123-3.14-10.83v-88.438h-17.912v87.792c0,9.064,2.507,16.477,7.45,22.036
				c4.99,5.632,12.747,8.485,23.061,8.485C310.703,724.628,318.525,721.774,323.527,716.143z"/>
			<path fill="#FFFFFF" d="M428.448,671.289c5.202-4.938,7.837-12.281,7.837-21.833v-13.593c0-9.061-2.449-16.32-7.287-21.585
				c-4.89-5.291-12.766-7.974-23.408-7.974h-29.966v117.03h18.09v-44.651h10.77C415.22,678.684,423.281,676.194,428.448,671.289z
				 M393.714,621.575h11.876c4.667,0,7.982,1.09,9.859,3.24c1.939,2.222,2.927,5.721,2.927,10.401v15.047
				c0,4.92-1.087,8.392-3.232,10.327c-2.194,1.979-5.779,2.984-10.661,2.984h-10.77V621.575z"/>
			<rect x="447.182" y="606.312" fill="#FFFFFF" width="18.092" height="117.03"/>
			<path fill="#FFFFFF" d="M534.564,715.303c5.031-5.299,7.578-12.647,7.578-21.848v-57.111c0-9.187-2.547-16.561-7.572-21.915
				c-5.072-5.391-12.977-8.124-23.486-8.124h-31.982v117.03h31.982C521.604,723.335,529.504,720.634,534.564,715.303z
				 M510.719,621.575c4.676,0,8.129,1.182,10.25,3.508c2.167,2.384,3.268,5.952,3.268,10.617v58.239
				c0,4.665-1.101,8.238-3.257,10.616c-2.134,2.326-5.524,3.508-10.087,3.508h-13.702v-86.488H510.719z"/>
			<polygon fill="#FFFFFF" points="554.695,723.333 611.314,723.333 611.314,708.066 572.793,708.066 572.793,671.567 
				604.164,671.567 604.164,656.456 572.793,656.456 572.793,621.578 611.314,621.578 611.314,606.307 554.695,606.307 			"/>
			<polygon fill="#FFFFFF" points="677.805,723.333 695.719,723.333 695.719,681.181 723.895,606.303 706.258,606.303 
				687.406,658.28 668.73,606.303 649.809,606.303 677.805,681.178 			"/>
			<path fill="#FFFFFF" d="M759.879,724.47c10.402,0,18.332-2.813,23.576-8.364c5.215-5.52,7.852-12.926,7.852-22.002V635.54
				c0-9.188-2.645-16.622-7.857-22.101c-5.25-5.481-13.18-8.264-23.57-8.264c-10.404,0-18.305,2.784-23.488,8.271
				c-5.148,5.468-7.764,12.899-7.764,22.092v58.563c0,9.085,2.609,16.482,7.758,21.994
				C741.563,721.654,749.469,724.47,759.879,724.47z M773.217,694.748c0,4.681-1.084,8.324-3.215,10.821
				c-2.098,2.445-5.41,3.633-10.123,3.633c-4.607,0-7.895-1.193-10.051-3.651c-2.18-2.474-3.285-6.105-3.285-10.803v-59.854
				c0-4.691,1.105-8.329,3.285-10.81c2.156-2.45,5.445-3.642,10.051-3.642c4.713,0,8.025,1.188,10.115,3.618
				c2.139,2.513,3.223,6.156,3.223,10.833V694.748L773.217,694.748z"/>
		</g>
		<path fill="#FCE917" d="M846.643,459.618c-3.086-0.855-6.428-1.007-9.662-1.007c-104.48-0.041-208.971-0.041-313.455-0.035
			c-104.268,0-208.542-0.006-312.815,0.048c-3.438,0-7.004,0.145-10.304,1.037c-6.49,1.762-10.575,8.122-10.316,15.117
			c0.253,6.836,4.41,12.471,10.878,14.033c3.125,0.754,6.447,0.966,9.675,0.972c17.805,0.092,35.627,0.195,53.436-0.048
			c5.255-0.085,9.429,1.297,13.741,4.444c92.606,67.54,195.671,92.485,308.096,76.495c68.025-9.68,129.693-36.264,185.24-77.531
			c2.723-2.014,6.693-3.118,10.098-3.176c18.459-0.293,36.934-0.094,55.395-0.167c3.016-0.018,6.098-0.224,9.037-0.862
			c6.848-1.491,11.172-7.111,11.357-14.261C857.24,467.563,853.246,461.45,846.643,459.618 M316.51,490.316h109.92
			c-4,2.152-6.717,3.457-9.284,5.013c-11.729,7.132-14.262,17.332-4.95,27.314c7.783,8.339,17.338,15.145,26.749,21.646
			c6.366,4.393,13.851,7.086,20.595,10.43C423.237,556.121,338.885,523.737,316.51,490.316"/>
		<g>
			<path fill="#FFFFFF" d="M546.572,311.234c13.23-18.565,19.486-39.877,18.58-63.362c-1.23-27.813-11.723-52.414-31.188-73.121
				c-1.414-1.505-2.498-2.498-3.405-3.143c-1.866-1.306-4.077-1.994-6.382-1.994c-3.305,0-5.85,1.34-7.085,2.146
				c-2.151,1.411-3.519,3.517-3.854,5.927c-0.398,2.925,0.744,6.186,3.129,8.942c0.93,1.075,1.919,2.091,2.918,3.108
				c0.705,0.73,1.424,1.46,2.096,2.209c27.695,30.917,30.68,77.869,6.951,109.214c-6.003,7.905-11.623,17.228-17.686,29.339
				c-13.388,26.713-17.29,49.85-12.291,72.812c3.503,16.124,11.373,30.548,24.059,44.101c3.086,3.291,6.078,3.982,8.041,3.982
				c1.744,0,4.371-0.542,7.033-3.125c4.477-4.371,4.432-10.187-0.129-15.169c-1.414-1.556-2.752-3.193-4.113-4.863
				c-15.363-18.836-19.782-39.691-13.525-63.755C524.115,347.554,532.397,331.133,546.572,311.234z"/>
			<path fill="#FFFFFF" d="M614.984,338.314c17.668-19.152,24.432-39.945,20.674-63.572c-2.17-13.614-7.771-26.726-17.145-40.086
				c-3.016-4.274-6.391-5.172-8.695-5.172c-2.127,0-4.205,0.754-6.172,2.237c-4.957,3.711-5.746,9.466-2.063,15.038l0.83,1.24
				c0.918,1.363,1.838,2.729,2.697,4.138c17.414,28.407,14.404,52.443-9.455,75.646c-5.445,5.278-10.811,11.416-15.953,18.235
				c-12.984,17.229-19.629,35.403-19.771,54.034c-0.047,16.048,4.359,30.597,13.479,44.479c1.932,2.945,5.066,6.859,9.91,6.859
				c2.012,0,4.051-0.703,6.043-2.087c5.484-3.792,5.973-9.207,1.449-16.102c-13.385-20.352-13.973-41.291-1.754-62.24
				C595.691,359.587,604.73,349.446,614.984,338.314z"/>
			<path fill="#FFFFFF" d="M459.261,232.7c-2.08-1.927-5.281-2.216-7.008-2.216c-1.287,0-4.533,0.18-6.833,1.854
				c-2.148,1.563-3.428,3.704-3.708,6.194c-0.342,3.023,0.86,6.281,3.381,9.169c1.125,1.29,2.273,2.565,3.422,3.842
				c3.134,3.476,6.092,6.76,8.596,10.371c10.438,15.099,12.239,31.218,5.346,47.907c-2.777,6.736-6.571,13.188-9.561,18.048
				c-14.774,23.933-21.816,45.957-21.512,67.415c0.816,21.642,7.293,38.017,20.384,51.533c2.943,3.041,5.997,4.581,9.078,4.581
				c2.563,0,4.94-1.042,7.067-3.102c2.16-2.088,3.266-4.456,3.295-7.034c0.033-3.061-1.464-6.073-4.578-9.223
				c-9.193-9.257-13.883-20.706-14.337-35.004c-0.72-23.197,9.246-42.985,18.009-57.634c4.689-7.85,9.155-15.597,12.253-24.03
				C493.33,285.947,485.057,256.59,459.261,232.7z"/>
		</g>
		<path fill="#FCE917" d="M402.594,435.599H144.521c-4.146,0-7.507-3.36-7.507-7.507c0-4.146,3.361-7.507,7.507-7.507h258.073
			c4.146,0,7.507,3.361,7.507,7.507C410.101,432.238,406.74,435.599,402.594,435.599z M398.543,401.628H266.149
			c-4.146,0-7.507-3.363-7.507-7.508c0-4.146,3.361-7.507,7.507-7.507h132.394c4.146,0,7.508,3.361,7.508,7.507
			C406.051,398.265,402.69,401.628,398.543,401.628z M232.048,401.628h-53.997c-4.146,0-7.507-3.363-7.507-7.508
			c0-4.146,3.361-7.507,7.507-7.507h53.997c4.147,0,7.508,3.361,7.508,7.507C239.556,398.265,236.195,401.628,232.048,401.628z
			 M407.24,367.968H227.012c-4.147,0-7.507-3.361-7.507-7.507c0-4.146,3.36-7.507,7.507-7.507h180.227
			c4.146,0,7.507,3.36,7.507,7.507C414.747,364.607,411.386,367.968,407.24,367.968z"/>
	</g>
</g>
</svg>
